<svg viewBox="0 0 14 16" xmlns="http://www.w3.org/2000/svg"><path d="m12.341921 0h-10.70431983c-.90267772 0-1.63760117.73492345-1.63760117 1.64558947v10.80017943c0 .910666.73492345 1.6455895 1.63760117 1.6455895h9.05873033l-.4233797-1.4778352 1.0225021.9506075.9665841.8946894 1.7174842 1.5177767v-14.33100733c0-.91066602-.7349235-1.64558947-1.6376012-1.64558947zm-3.08348316 10.4327177s-.28757875-.3434968-.52722768-.64705217c1.04646706-.29556702 1.44588204-.95060751 1.44588204-.95060751-.32752027.21568404-.63906391.36746173-.91865436.4713096-.39941493.16775426-.78285324.27959044-1.15830329.34349684-.76687661.14378938-1.46984688.10384787-2.06896928-.00798831-.45533297-.08787129-.84675961-.21568404-1.17427985-.34349685-.18373086-.07189466-.38343832-.15976595-.58314578-.27160213-.0239649-.01597657-.04792979-.02396488-.07189469-.03994146-.01597659-.00798831-.02396489-.01597662-.03195319-.02396494-.14378937-.07988297-.22367235-.13580106-.22367235-.13580106s.38343832.63906386 1.39795222.94261925c-.23964896.30355534-.535216.66302874-.535216.66302874-1.76541395-.0559181-2.43643101-1.21422137-2.43643101-1.21422137 0-2.57223208 1.15031497-4.65717795 1.15031497-4.65717795 1.15031497-.86273623 2.24471186-.83877133 2.24471186-.83877133l.07988298.09585958c-1.43789372.41539152-2.10092248 1.04646709-2.10092248 1.04646709s.17574256-.09585958.4713096-.23166065c.85474793-.37545003 1.53375328-.47929791 1.81334372-.5032628.04792983-.0079883.08787129-.0159766.13580106-.0159766.48728623-.06390639 1.0384788-.07988298 1.61363632-.0159766.75888835.08787129 1.57369474.31154364 2.40447785.76687665 0 0-.63107564-.59912238-1.98908634-1.01451389l.11183617-.12781278s1.09439689-.0239649 2.24471187.83877133c0 0 1.1503149 2.08494587 1.1503149 4.65717795 0 0-.6790053 1.15830327-2.44441926 1.21422137zm-3.71455874-3.73053537c-.45533302 0-.81480645.39941494-.81480645.88670116 0 .48728618.36746172.88670111.81480645.88670111.45533297 0 .81480644-.39941493.81480644-.88670111.00798826-.48728622-.35947347-.88670116-.81480644-.88670116zm2.91572887 0c-.45533297 0-.81480639.39941494-.81480639.88670116 0 .48728618.36746168.88670111.81480639.88670111.45533303 0 .81480645-.39941493.81480645-.88670111 0-.48728622-.35947342-.88670116-.81480645-.88670116z" fill="#7289da"/></svg>